<?xml version="1.0" standalone="no"?>
<!DOCTYPE svg PUBLIC "-//W3C//DTD SVG 20010904//EN"
 "http://www.w3.org/TR/2001/REC-SVG-20010904/DTD/svg10.dtd">
<svg version="1.0" xmlns="http://www.w3.org/2000/svg"
 width="400.000000pt" height="400.000000pt" viewBox="0 0 400.000000 400.000000"
 preserveAspectRatio="xMidYMid meet">
<metadata>
Created by potrace 1.14, written by Peter Selinger 2001-2017
</metadata>
<g transform="translate(0.000000,400.000000) scale(0.100000,-0.100000)"
fill="#000000" stroke="none">
<path d="M0 2000 l0 -2000 2000 0 2000 0 0 2000 0 2000 -2000 0 -2000 0 0
-2000z m2235 1725 c143 -20 224 -41 356 -90 203 -76 403 -204 565 -361 142
-140 229 -263 324 -459 121 -252 168 -488 158 -796 -7 -196 -40 -351 -113
-531 -60 -146 -98 -214 -192 -340 -124 -167 -171 -215 -308 -314 -71 -52 -143
-105 -160 -118 -52 -42 -298 -156 -336 -156 -5 0 -20 24 -33 53 -13 28 -36 67
-50 86 -33 45 -33 61 4 96 42 40 64 90 50 115 -6 11 -15 20 -20 20 -5 0 -11 9
-15 20 -7 22 -121 141 -172 181 l-32 24 13 93 c7 51 17 97 22 101 5 5 56 16
114 25 261 40 331 93 289 215 -10 29 -9 35 16 61 25 27 27 32 16 56 -10 23 -9
30 6 46 13 15 18 37 18 81 0 61 0 62 37 79 38 18 68 52 68 78 0 8 -29 59 -64
113 -71 109 -98 159 -97 185 0 9 6 45 13 79 11 59 10 66 -14 125 -14 35 -31
93 -38 130 -12 60 -12 74 3 121 19 61 22 113 7 122 -7 4 -8 23 -5 48 11 72
-26 132 -105 172 -152 77 -197 97 -229 102 -20 3 -56 16 -81 28 -71 36 -103
39 -146 16 -28 -15 -48 -19 -79 -14 -33 4 -43 2 -48 -11 -6 -14 -23 -16 -119
-15 -73 2 -121 -2 -136 -10 -12 -7 -38 -14 -56 -16 -73 -10 -178 -70 -250
-143 -37 -39 -65 -75 -62 -80 3 -6 0 -13 -6 -15 -10 -4 -9 -8 2 -16 8 -5 12
-11 10 -13 -38 -24 -50 -27 -50 -13 0 8 -4 15 -10 15 -5 0 -10 -4 -10 -9 0 -6
-22 -35 -49 -65 -31 -37 -58 -81 -76 -129 -30 -79 -31 -87 -17 -197 5 -41 15
-115 21 -165 10 -76 20 -106 63 -192 28 -57 73 -133 101 -170 73 -100 105
-171 122 -269 21 -122 20 -171 -5 -184 -11 -6 -20 -21 -20 -33 0 -32 -30 -170
-39 -182 -5 -5 -11 -27 -15 -48 -4 -22 -14 -41 -24 -44 -9 -3 -44 -31 -78 -62
-33 -31 -91 -81 -129 -111 -72 -58 -109 -92 -122 -112 -9 -15 -79 -68 -89 -68
-3 0 -30 -16 -58 -36 l-51 -36 48 49 c26 27 47 52 47 57 0 5 -43 50 -95 102
-52 51 -104 113 -116 136 -12 23 -46 80 -75 126 -108 166 -138 241 -193 482
-53 230 -64 420 -35 604 19 126 60 278 100 371 106 248 183 365 354 535 230
231 463 366 756 440 191 48 432 62 619 35z m165 -3095 c6 -11 7 -20 2 -20 -6
0 -12 9 -15 20 -3 11 -3 20 -1 20 2 0 8 -9 14 -20z m74 -64 c14 -25 26 -48 26
-53 0 -4 -9 7 -20 25 -11 17 -22 32 -25 32 -11 0 -4 -30 11 -44 8 -9 14 -22
11 -29 -2 -6 -14 7 -26 31 -12 23 -25 41 -29 38 -4 -2 -8 4 -8 14 0 18 1 18
19 2 19 -16 19 -16 13 6 -11 35 0 26 28 -22z"/>
</g>
</svg>
